<svg width="50" height="50" xmlns="http://www.w3.org/2000/svg"><g transform="translate(1 1)" fill="none" fillRule="evenodd"><circle fill="#81E6D9" cx="24" cy="24" r="24"/><path d="M.042 24a23.958 23.958 0 1047.916 0A23.958 23.958 0 00.042 24h0zM22.958 25.042l-12.5 12.5" stroke="#1A202C" stroke-width="2.083" stroke-linecap="round" stroke-linejoin="round"/><path d="M36.975 11.025a43.958 43.958 0 00-5.538 1.356l-1.829 6.01-3.84-3.841a27.756 27.756 0 00-7.943 5.315c-6.917 6.914-3.683 11.041-2.21 12.52 1.472 1.48 5.606 4.707 12.52-2.21 6.915-6.917 8.84-19.15 8.84-19.15z" stroke="#1A202C" stroke-width="2.083" stroke-linecap="round" stroke-linejoin="round"/></g></svg>